<svg width="475" height="475" viewBox="0 0 475 475" fill="none" xmlns="http://www.w3.org/2000/svg">
<path d="M474.657 220.348C474.657 276.874 430.872 322.697 376.86 322.697C322.849 322.697 279.064 276.874 279.064 220.348C279.064 163.823 322.849 118 376.86 118C430.872 118 474.657 163.823 474.657 220.348Z" fill="#BBBBBB"/>
<path d="M186 118H376.86V322.697H186V118Z" fill="#BBBBBB"/>
<ellipse cx="217.019" cy="177.443" rx="138.019" ry="144.443" fill="#D1D1D1"/>
<path d="M425 280.538C425 337.064 381.215 382.887 327.204 382.887C273.192 382.887 229.407 337.064 229.407 280.538C229.407 224.013 273.192 178.19 327.204 178.19C381.215 178.19 425 224.013 425 280.538Z" fill="#F5F5F5"/>
<path d="M136.343 178.19H327.204V382.887H136.343V178.19Z" fill="#F5F5F5"/>
<ellipse cx="138.019" cy="238.443" rx="138.019" ry="144.443" fill="white"/>
</svg>
