<svg width="475" height="475" viewBox="0 0 475 475" fill="none" xmlns="http://www.w3.org/2000/svg">
<g clip-path="url(#clip0_411_95)">
<path fill-rule="evenodd" clip-rule="evenodd" d="M421.325 368.325C447.075 342.574 464.357 311.562 473.171 278.749C406.208 296.735 331.746 279.453 279.196 226.903C226.647 174.354 209.365 99.8915 227.35 32.9291C194.537 41.7425 163.525 59.0244 137.775 84.7749C59.4748 163.075 59.4748 290.025 137.775 368.325C216.075 446.625 343.025 446.625 421.325 368.325Z" fill="#F3C34B"/>
<path d="M305.05 361.822C305.05 402.661 273.416 435.767 234.393 435.767C195.371 435.767 163.737 402.661 163.737 361.822C163.737 320.983 195.371 287.876 234.393 287.876C273.416 287.876 305.05 320.983 305.05 361.822Z" fill="#F5F5F5"/>
<path d="M96.499 287.876H234.393V435.767H96.499V287.876Z" fill="#F5F5F5"/>
<ellipse cx="102.767" cy="331.408" rx="99.717" ry="104.359" fill="white"/>
</g>
<defs>
<clipPath id="clip0_411_95">
<rect width="475" height="475" fill="white"/>
</clipPath>
</defs>
</svg>
