<svg width="475" height="475" viewBox="0 0 475 475" fill="none" xmlns="http://www.w3.org/2000/svg">
<circle cx="237.5" cy="200.5" r="200.5" fill="#F3C34B"/>
<path d="M302 326.772C302 367.611 270.366 400.717 231.344 400.717C192.321 400.717 160.687 367.611 160.687 326.772C160.687 285.933 192.321 252.826 231.344 252.826C270.366 252.826 302 285.933 302 326.772Z" fill="#F5F5F5"/>
<path d="M93.4492 252.826H231.344V400.717H93.4492V252.826Z" fill="#F5F5F5"/>
<ellipse cx="99.717" cy="296.359" rx="99.717" ry="104.359" fill="white"/>
<path d="M78 410.661C78 424.103 67.031 435 53.5 435C39.969 435 29 424.103 29 410.661C29 397.22 53.5 355 53.5 355C53.5 355 78 397.22 78 410.661Z" fill="#9CCFFF"/>
<path d="M169 450.661C169 464.103 158.031 475 144.5 475C130.969 475 120 464.103 120 450.661C120 437.22 144.5 395 144.5 395C144.5 395 169 437.22 169 450.661Z" fill="#9CCFFF"/>
<path d="M260 389.661C260 403.103 249.031 414 235.5 414C221.969 414 211 403.103 211 389.661C211 376.22 235.5 334 235.5 334C235.5 334 260 376.22 260 389.661Z" fill="#9CCFFF"/>
</svg>
