<svg width="475" height="475" viewBox="0 0 475 475" fill="none" xmlns="http://www.w3.org/2000/svg">
<g clip-path="url(#clip0_432_62)">
<path fill-rule="evenodd" clip-rule="evenodd" d="M378.325 343.075C404.075 317.279 421.357 286.212 430.171 253.341C363.208 271.359 288.746 254.046 236.196 201.404C183.647 148.762 166.365 74.1681 184.35 7.08767C151.537 15.9167 120.525 33.229 94.7749 59.0249C16.4748 137.463 16.4748 264.637 94.7749 343.075C173.075 421.513 300.025 421.513 378.325 343.075Z" fill="#F3C34B"/>
<path d="M302 326.771C302 367.611 270.366 400.717 231.344 400.717C192.321 400.717 160.687 367.611 160.687 326.771C160.687 285.932 192.321 252.826 231.344 252.826C270.366 252.826 302 285.932 302 326.771Z" fill="#F5F5F5"/>
<path d="M93.4492 252.826H231.344V400.717H93.4492V252.826Z" fill="#F5F5F5"/>
<ellipse cx="99.717" cy="296.359" rx="99.717" ry="104.359" fill="white"/>
<path d="M78 410.492C78 423.934 67.031 434.831 53.5 434.831C39.969 434.831 29 423.934 29 410.492C29 397.05 53.5 354.831 53.5 354.831C53.5 354.831 78 397.05 78 410.492Z" fill="#9CCFFF"/>
<path d="M169 450.492C169 463.934 158.031 474.831 144.5 474.831C130.969 474.831 120 463.934 120 450.492C120 437.05 144.5 394.831 144.5 394.831C144.5 394.831 169 437.05 169 450.492Z" fill="#9CCFFF"/>
<path d="M260 389.492C260 402.934 249.031 413.831 235.5 413.831C221.969 413.831 211 402.934 211 389.492C211 376.05 235.5 333.831 235.5 333.831C235.5 333.831 260 376.05 260 389.492Z" fill="#9CCFFF"/>
</g>
<defs>
<clipPath id="clip0_432_62">
<rect width="475" height="475" fill="white"/>
</clipPath>
</defs>
</svg>
