<svg width="475" height="475" viewBox="0 0 475 475" fill="none" xmlns="http://www.w3.org/2000/svg">
<g clip-path="url(#clip0_441_22)">
<path d="M445 238.538C445 295.064 401.215 340.887 347.204 340.887C293.192 340.887 249.407 295.064 249.407 238.538C249.407 182.013 293.192 136.19 347.204 136.19C401.215 136.19 445 182.013 445 238.538Z" fill="#F5F5F5"/>
<path d="M156.343 136.19H347.204V340.887H156.343V136.19Z" fill="#F5F5F5"/>
<ellipse cx="165.019" cy="196.443" rx="138.019" ry="144.443" fill="white"/>
<path d="M181 396.661C181 410.103 170.031 421 156.5 421C142.969 421 132 410.103 132 396.661C132 383.22 156.5 341 156.5 341C156.5 341 181 383.22 181 396.661Z" fill="#9CCFFF"/>
<path d="M272 436.661C272 450.103 261.031 461 247.5 461C233.969 461 223 450.103 223 436.661C223 423.22 247.5 381 247.5 381C247.5 381 272 423.22 272 436.661Z" fill="#9CCFFF"/>
<path d="M363 375.661C363 389.103 352.031 400 338.5 400C324.969 400 314 389.103 314 375.661C314 362.22 338.5 320 338.5 320C338.5 320 363 362.22 363 375.661Z" fill="#9CCFFF"/>
</g>
<defs>
<clipPath id="clip0_441_22">
<rect width="475" height="475" fill="white"/>
</clipPath>
</defs>
</svg>
