<svg width="475" height="475" viewBox="0 0 475 475" fill="none" xmlns="http://www.w3.org/2000/svg">
<path d="M236.781 16.219C236.781 16.0981 236.879 16 237 16C237.121 16 237.219 16.0981 237.219 16.219V325.878H236.781V16.219Z" fill="#9CCFFF"/>
<path d="M190.533 35.807C190.448 35.7211 190.448 35.5831 190.533 35.4972C190.619 35.4098 190.76 35.4098 190.847 35.4972L237.002 82.2492C237.087 82.335 237.087 82.473 237.002 82.5589C236.916 82.6463 236.774 82.6463 236.688 82.5589L190.533 35.807Z" fill="#9CCFFF"/>
<path d="M283.153 35.4973C283.24 35.4098 283.381 35.4098 283.467 35.4973C283.552 35.5831 283.552 35.7212 283.467 35.807L237.312 82.5589C237.226 82.6464 237.084 82.6464 236.998 82.5589C236.913 82.4731 236.913 82.335 236.998 82.2492L283.153 35.4973Z" fill="#9CCFFF"/>
<path d="M237.219 458.781C237.219 458.902 237.121 459 237 459C236.879 459 236.781 458.902 236.781 458.781L236.781 325.878H237.219L237.219 458.781Z" fill="#9CCFFF"/>
<path d="M283.467 439.193C283.552 439.279 283.552 439.417 283.467 439.503C283.381 439.59 283.24 439.59 283.153 439.503L236.998 392.751C236.913 392.665 236.913 392.527 236.998 392.441C237.084 392.354 237.226 392.354 237.312 392.441L283.467 439.193Z" fill="#9CCFFF"/>
<path d="M190.847 439.503C190.76 439.59 190.619 439.59 190.533 439.503C190.448 439.417 190.448 439.279 190.533 439.193L236.688 392.441C236.774 392.354 236.916 392.354 237.002 392.441C237.087 392.527 237.087 392.665 237.002 392.751L190.847 439.503Z" fill="#9CCFFF"/>
<path d="M15.2189 237.349C15.098 237.349 15 237.251 15 237.13C15 237.009 15.098 236.911 15.2189 236.911H325.8V237.349H15.2189Z" fill="#9CCFFF"/>
<path d="M34.8184 283.57C34.7326 283.655 34.5947 283.655 34.5089 283.57C34.4213 283.484 34.4213 283.343 34.5089 283.256L81.2882 237.128C81.374 237.043 81.5119 237.043 81.5978 237.128C81.6853 237.214 81.6853 237.356 81.5978 237.442L34.8184 283.57Z" fill="#9CCFFF"/>
<path d="M34.5089 191.004C34.4213 190.918 34.4213 190.777 34.5089 190.69C34.5947 190.606 34.7326 190.606 34.8185 190.69L81.5978 236.818C81.6854 236.905 81.6854 237.046 81.5978 237.132C81.512 237.217 81.3741 237.217 81.2882 237.132L34.5089 191.004Z" fill="#9CCFFF"/>
<path d="M458.781 236.911C458.902 236.911 459 237.009 459 237.13C459 237.251 458.902 237.349 458.781 237.349L325.8 237.349V236.911L458.781 236.911Z" fill="#9CCFFF"/>
<path d="M439.182 190.69C439.267 190.606 439.405 190.606 439.491 190.69C439.579 190.777 439.579 190.918 439.491 191.004L392.712 237.132C392.626 237.217 392.488 237.217 392.402 237.132C392.315 237.046 392.315 236.905 392.402 236.818L439.182 190.69Z" fill="#9CCFFF"/>
<path d="M439.491 283.256C439.579 283.343 439.579 283.484 439.491 283.57C439.405 283.655 439.267 283.655 439.182 283.57L392.402 237.442C392.315 237.356 392.315 237.214 392.402 237.128C392.488 237.043 392.626 237.043 392.712 237.128L439.491 283.256Z" fill="#9CCFFF"/>
<path d="M393.442 80.7473C393.528 80.6618 393.666 80.6618 393.752 80.7473C393.838 80.8328 393.838 80.9715 393.752 81.0571L299.72 175.034L299.411 174.724L393.442 80.7473Z" fill="#9CCFFF"/>
<path d="M346.881 61.915C346.882 61.7944 346.979 61.6968 347.1 61.696C347.223 61.6952 347.323 61.7951 347.322 61.918L346.881 127.594C346.88 127.715 346.782 127.812 346.662 127.813C346.539 127.814 346.439 127.714 346.44 127.591L346.881 61.915Z" fill="#9CCFFF"/>
<path d="M412.593 127.15C412.715 127.149 412.815 127.249 412.814 127.372C412.814 127.493 412.716 127.59 412.596 127.591L346.881 128.032C346.758 128.033 346.658 127.933 346.659 127.81C346.66 127.69 346.757 127.592 346.878 127.591L412.593 127.15Z" fill="#9CCFFF"/>
<path d="M80.8351 393.79C80.7496 393.876 80.611 393.876 80.5255 393.79C80.44 393.705 80.44 393.566 80.5255 393.481L299.411 174.724L299.72 175.034L80.8351 393.79Z" fill="#9CCFFF"/>
<path d="M127.397 412.623C127.396 412.743 127.298 412.841 127.178 412.842C127.055 412.842 126.955 412.743 126.956 412.62L127.397 346.944C127.398 346.823 127.495 346.725 127.616 346.725C127.739 346.724 127.839 346.824 127.838 346.947L127.397 412.623Z" fill="#9CCFFF"/>
<path d="M61.6849 347.387C61.562 347.388 61.4622 347.288 61.463 347.166C61.4639 347.045 61.5614 346.947 61.6819 346.947L127.397 346.506C127.52 346.505 127.62 346.605 127.619 346.728C127.618 346.848 127.52 346.946 127.4 346.946L61.6849 347.387Z" fill="#9CCFFF"/>
<path d="M393.752 393.481C393.838 393.566 393.838 393.705 393.752 393.79C393.667 393.876 393.528 393.876 393.442 393.79L299.411 299.814L299.72 299.504L393.752 393.481Z" fill="#9CCFFF"/>
<path d="M412.596 346.947C412.716 346.948 412.814 347.045 412.815 347.166C412.815 347.288 412.716 347.388 412.593 347.387L346.878 346.946C346.757 346.946 346.66 346.848 346.659 346.728C346.658 346.605 346.758 346.505 346.881 346.506L412.596 346.947Z" fill="#9CCFFF"/>
<path d="M347.322 412.62C347.323 412.742 347.223 412.842 347.1 412.842C346.979 412.841 346.882 412.743 346.881 412.623L346.44 346.947C346.439 346.824 346.539 346.724 346.662 346.725C346.782 346.725 346.88 346.823 346.881 346.944L347.322 412.62Z" fill="#9CCFFF"/>
<path d="M80.5255 81.057C80.4399 80.9714 80.4399 80.8327 80.5255 80.7472C80.611 80.6617 80.7496 80.6617 80.8351 80.7472L299.72 299.504L299.411 299.814L80.5255 81.057Z" fill="#9CCFFF"/>
<path d="M61.6817 127.591C61.5612 127.59 61.4636 127.493 61.4628 127.372C61.462 127.249 61.5618 127.149 61.6847 127.15L127.4 127.591C127.52 127.592 127.618 127.69 127.619 127.81C127.619 127.933 127.52 128.033 127.397 128.032L61.6817 127.591Z" fill="#9CCFFF"/>
<path d="M126.955 61.918C126.955 61.7951 127.054 61.6952 127.177 61.6961C127.298 61.6969 127.396 61.7944 127.396 61.9151L127.838 127.591C127.839 127.714 127.739 127.814 127.616 127.813C127.495 127.812 127.398 127.715 127.397 127.594L126.955 61.918Z" fill="#9CCFFF"/>
<path d="M237.219 325.878V16.219C237.219 16.0981 237.121 16 237 16V16C236.879 16 236.781 16.0981 236.781 16.219V325.878M237.219 325.878H236.781M237.219 325.878L237.219 458.781C237.219 458.902 237.121 459 237 459V459C236.879 459 236.781 458.902 236.781 458.781L236.781 325.878M325.8 236.911H15.2189C15.098 236.911 15 237.009 15 237.13V237.13C15 237.251 15.098 237.349 15.2189 237.349H325.8M325.8 236.911V237.349M325.8 236.911L458.781 236.911C458.902 236.911 459 237.009 459 237.13V237.13C459 237.251 458.902 237.349 458.781 237.349L325.8 237.349M299.72 175.034L393.752 81.0571C393.838 80.9715 393.838 80.8328 393.752 80.7473V80.7473C393.666 80.6618 393.528 80.6618 393.442 80.7473L299.411 174.724M299.72 175.034L299.411 174.724M299.72 175.034L80.8351 393.79C80.7496 393.876 80.611 393.876 80.5255 393.79V393.79C80.44 393.705 80.44 393.566 80.5255 393.481L299.411 174.724M299.411 299.814L393.442 393.79C393.528 393.876 393.667 393.876 393.752 393.79V393.79C393.838 393.705 393.838 393.566 393.752 393.481L299.72 299.504M299.411 299.814L299.72 299.504M299.411 299.814L80.5255 81.057C80.4399 80.9714 80.4399 80.8327 80.5255 80.7472V80.7472C80.611 80.6617 80.7496 80.6617 80.8351 80.7472L299.72 299.504M127.616 127.813V127.813C127.739 127.814 127.839 127.714 127.838 127.591L127.396 61.9151C127.396 61.7944 127.298 61.6969 127.177 61.6961V61.6961C127.054 61.6952 126.955 61.7951 126.955 61.918L127.397 127.594C127.398 127.715 127.495 127.812 127.616 127.813ZM127.619 127.81V127.81C127.618 127.69 127.52 127.592 127.4 127.591L61.6847 127.15C61.5618 127.149 61.462 127.249 61.4628 127.372V127.372C61.4636 127.493 61.5612 127.59 61.6817 127.591L127.397 128.032C127.52 128.033 127.619 127.933 127.619 127.81ZM346.662 346.725V346.725C346.539 346.724 346.439 346.824 346.44 346.947L346.881 412.623C346.882 412.743 346.979 412.841 347.1 412.842V412.842C347.223 412.842 347.323 412.743 347.322 412.62L346.881 346.944C346.88 346.823 346.782 346.725 346.662 346.725ZM346.659 346.728V346.728C346.66 346.848 346.757 346.946 346.878 346.946L412.593 347.387C412.716 347.388 412.816 347.288 412.815 347.166V347.166C412.814 347.045 412.716 346.948 412.596 346.947L346.881 346.506C346.758 346.505 346.658 346.605 346.659 346.728ZM127.619 346.728V346.728C127.62 346.605 127.52 346.505 127.397 346.506L61.6819 346.947C61.5614 346.947 61.4639 347.045 61.463 347.166V347.166C61.4622 347.288 61.562 347.388 61.6849 347.387L127.4 346.946C127.52 346.946 127.618 346.848 127.619 346.728ZM127.616 346.725V346.725C127.495 346.725 127.398 346.823 127.397 346.944L126.956 412.62C126.955 412.743 127.055 412.842 127.178 412.842V412.842C127.298 412.841 127.396 412.743 127.397 412.623L127.838 346.947C127.839 346.824 127.739 346.724 127.616 346.725ZM346.659 127.81V127.81C346.658 127.933 346.758 128.033 346.881 128.032L412.596 127.591C412.716 127.59 412.814 127.493 412.814 127.372V127.372C412.815 127.249 412.715 127.149 412.593 127.15L346.878 127.591C346.757 127.592 346.66 127.69 346.659 127.81ZM346.881 127.594L347.322 61.918C347.323 61.7951 347.223 61.6952 347.1 61.696V61.696C346.979 61.6968 346.882 61.7944 346.881 61.915L346.44 127.591C346.439 127.714 346.539 127.814 346.662 127.813V127.813C346.782 127.812 346.88 127.715 346.881 127.594ZM392.402 237.128V237.128C392.315 237.214 392.315 237.356 392.402 237.442L439.182 283.57C439.267 283.655 439.405 283.655 439.491 283.57V283.57C439.579 283.484 439.579 283.343 439.491 283.256L392.712 237.128C392.626 237.043 392.488 237.043 392.402 237.128ZM392.402 237.132V237.132C392.488 237.217 392.626 237.217 392.712 237.132L439.491 191.004C439.579 190.918 439.579 190.777 439.491 190.69V190.69C439.405 190.606 439.267 190.606 439.182 190.69L392.402 236.818C392.315 236.905 392.315 237.046 392.402 237.132ZM81.5978 237.132V237.132C81.6854 237.046 81.6854 236.905 81.5978 236.818L34.8185 190.69C34.7326 190.606 34.5947 190.606 34.5089 190.69V190.69C34.4213 190.777 34.4213 190.918 34.5089 191.004L81.2882 237.132C81.3741 237.217 81.512 237.217 81.5978 237.132ZM81.5978 237.128V237.128C81.5119 237.043 81.374 237.043 81.2882 237.128L34.5089 283.256C34.4213 283.343 34.4213 283.484 34.5089 283.57V283.57C34.5947 283.655 34.7326 283.655 34.8184 283.57L81.5978 237.442C81.6853 237.356 81.6853 237.214 81.5978 237.128ZM237.002 392.441V392.441C236.916 392.354 236.774 392.354 236.688 392.441L190.533 439.193C190.448 439.279 190.448 439.417 190.533 439.503V439.503C190.619 439.59 190.76 439.59 190.847 439.503L237.002 392.751C237.087 392.665 237.087 392.527 237.002 392.441ZM236.998 392.441V392.441C236.913 392.527 236.913 392.665 236.998 392.751L283.153 439.503C283.24 439.59 283.381 439.59 283.467 439.503V439.503C283.552 439.417 283.552 439.279 283.467 439.193L237.312 392.441C237.226 392.354 237.084 392.354 236.998 392.441ZM237.312 82.5589L283.467 35.807C283.552 35.7212 283.552 35.5831 283.467 35.4973V35.4973C283.381 35.4098 283.24 35.4098 283.153 35.4973L236.998 82.2492C236.913 82.335 236.913 82.4731 236.998 82.5589V82.5589C237.084 82.6464 237.226 82.6464 237.312 82.5589ZM237.002 82.5589V82.5589C237.087 82.473 237.087 82.335 237.002 82.2491L190.847 35.4972C190.76 35.4098 190.619 35.4098 190.533 35.4972V35.4972C190.448 35.5831 190.448 35.7211 190.533 35.807L236.688 82.5589C236.774 82.6463 236.916 82.6463 237.002 82.5589Z" stroke="#9CCFFF" stroke-width="26"/>
</svg>
