<svg width="475" height="475" viewBox="0 0 475 475" fill="none" xmlns="http://www.w3.org/2000/svg">
<path d="M250.607 286.323L190.392 263.59L140.033 368.206L181.723 468.779L183.284 378.328L250.607 286.323Z" fill="#F3C34B"/>
<path d="M330.831 248.84L274.931 238.615L248.844 331.362L301.726 407.952L287.958 333.62L330.831 248.84Z" fill="#F3C34B"/>
<path d="M446 194.538C446 251.064 402.215 296.887 348.204 296.887C294.192 296.887 250.407 251.064 250.407 194.538C250.407 138.013 294.192 92.1899 348.204 92.1899C402.215 92.1899 446 138.013 446 194.538Z" fill="#F5F5F5"/>
<path d="M157.343 92.1899H348.204V296.887H157.343V92.1899Z" fill="#F5F5F5"/>
<ellipse cx="166.019" cy="152.443" rx="138.019" ry="144.443" fill="white"/>
</svg>
