<svg width="917" height="273" viewBox="0 0 917 273" fill="none" xmlns="http://www.w3.org/2000/svg">
<path d="M659 272.5H458.5H258C258 161.767 347.767 72 458.5 72C569.233 72 659 161.767 659 272.5Z" fill="#F4A052"/>
<path d="M696 273H458.5H221C221 141.556 327.332 35 458.5 35C589.668 35 696 141.556 696 273Z" fill="#F4A052" fill-opacity="0.5"/>
<path d="M731 273H186C186 122.226 308.002 0 458.5 0C608.998 0 731 122.226 731 273Z" fill="#F4A052" fill-opacity="0.5"/>
<path d="M0 255.5C0 245.835 7.83502 238 17.5 238H188.219L187.695 242.375L187.243 246.75L186.862 251.125L186.551 255.5L186.309 259.875L186.137 264.25L186.034 268.625L186 273H17.5C7.83502 273 0 265.165 0 255.5Z" fill="#F4A052" fill-opacity="0.5"/>
<path d="M917 255.5C917 265.165 909.165 273 899.5 273H731L730.966 268.625L730.863 264.25L730.691 259.875L730.449 255.5L730.138 251.125L729.757 246.75L729.305 242.375L728.781 238L899.5 238C909.165 238 917 245.835 917 255.5Z" fill="#F4A052" fill-opacity="0.5"/>
</svg>
